<?xml version="1.0" encoding="utf-8"?>
<!-- Generator: Adobe Illustrator 19.1.0, SVG Export Plug-In . SVG Version: 6.00 Build 0)  -->
<svg version="1.1" xmlns="http://www.w3.org/2000/svg" xmlns:xlink="http://www.w3.org/1999/xlink" x="0px" y="0px"
	 viewBox="0 0 400 400" style="enable-background:new 0 0 400 400;" xml:space="preserve">
<style type="text/css">
	.st0{fill:#F79761;}
	.st1{fill:#F79661;}
	.st2{opacity:0.6;fill:#F79661;}
	.st3{opacity:0.39;fill:#D07F52;}
	.st4{fill:none;}
	.st5{fill:none;stroke:#000000;stroke-width:3;stroke-miterlimit:10;}
	.st6{opacity:0.63;}
	.st7{opacity:0.52;}
	.st8{opacity:0.62;}
	.st9{fill:none;stroke:#000000;stroke-width:3.659;stroke-miterlimit:10;}
	.st10{opacity:0.59;}
	.st11{opacity:0.51;}
	.st12{opacity:0.6;}
	.st13{opacity:0.51;fill:#F79661;}
	.st14{fill:none;stroke:#000000;stroke-width:2.6982;stroke-miterlimit:10;}
	.st15{opacity:0.61;fill:#F79761;}
	.st16{opacity:0.61;fill:none;stroke:#000000;stroke-width:4;stroke-miterlimit:10;}
	.st17{fill:none;stroke:#000000;stroke-width:4;stroke-miterlimit:10;}
	.st18{opacity:0.43;fill:#793919;}
	.st19{opacity:0.68;fill:#793919;}
	.st20{fill:none;stroke:#000000;stroke-width:2;stroke-miterlimit:10;}
	.st21{fill:none;stroke:#000000;stroke-width:4.2346;stroke-miterlimit:10;}
	.st22{fill:none;stroke:#000000;stroke-width:2.5473;stroke-miterlimit:10;}
	.st23{fill:none;stroke:#414042;stroke-width:2.8904;stroke-miterlimit:10;}
	.st24{fill:none;stroke:#414042;stroke-width:1.0656;stroke-miterlimit:10;}
	.st25{fill:none;stroke:#000000;stroke-width:1.2476;stroke-miterlimit:10;}
	.st26{fill:none;stroke:#414042;stroke-width:1.5;stroke-miterlimit:10;}
	.st27{fill:none;stroke:#414042;stroke-width:1.487;stroke-miterlimit:10;}
	.st28{fill:none;stroke:#414042;stroke-width:1.0456;stroke-miterlimit:10;}
	.st29{fill:#FFFFFF;}
	.st30{fill:none;stroke:#414042;stroke-width:12.1553;stroke-miterlimit:10;}
	.st31{opacity:0.8;fill:#F79661;}
	.st32{opacity:0.68;fill:#F79661;}
	.st33{fill:none;stroke:#414042;stroke-width:3;stroke-miterlimit:10;}
</style>
<g id="Layer_4">
</g>
<g id="Layer_1">
</g>
<g id="_x3C_Layer_x3E_">
</g>
<g id="Layer_2">
	<g>
		<path class="st31" d="M210.8,148.6c4.1-3.6,7.8-8.5,24-5.1c0,0,8.9-8.3,26.3-5.8c54.5-33,116.5,129.2,5.4,149.1
			c-7.5,4.9-38.1,9.5-45.5,6c0,0-12.6,5.3-24.5-0.4c0,0-14.3,2.4-19,2.6C90,299,65,142.9,147.9,135.1c13-2,18.9,6.1,18.9,6.1
			s15-4.6,22.2,4C200.7,137.9,205.9,144.3,210.8,148.6z"/>
		<path class="st32" d="M178.4,111.2c-5.4-1.4,9.6-13.8,13.9-12.9c7.6,1.6,29.8,10.8,31.5,43.4c-13.8,10.7-11.8,9.4-23.4,2.3
			C200.3,144,212.9,120.2,178.4,111.2z"/>
	</g>
	<g>
		<path class="st33" d="M202.4,144.3c4.1-3.6,7.8-8.5,24-5.1c0,0,6.2-9.4,23.6-6.8c55.2-34.8,122.9,128.6,8.1,150.2
			c-7.5,4.9-38.1,9.5-45.5,6c0,0-12.6,5.3-24.5-0.4c0,0-14.3,2.4-19,2.6c-87.5,4-112.4-152.1-29.6-159.9c13-2,18.9,6.1,18.9,6.1
			s15-4.6,22.2,4C192.3,133.6,197.5,140.1,202.4,144.3z"/>
		<path class="st33" d="M158.4,136.9c0,0-69.6,62.8,7,153.9"/>
		<path class="st33" d="M180.6,140.9c0,0-31.5,79.1,7.5,147.3"/>
		<path class="st33" d="M202.4,144.3c0,0,47.3,69.9,10.1,144.2"/>
		<path class="st33" d="M226.4,139.2c0,0,58.7,66.8,15.2,149"/>
		<path class="st33" d="M250,132.4c0,0,86.7,78.8,8.1,150.2"/>
		<path class="st33" d="M191.7,138.1c0,0,12.6-23.8-21.9-32.8c-5.4-1.4,9.6-13.8,13.9-12.9c7.6,1.6,31.1,10.4,31.5,45.7"/>
	</g>
</g>
<g id="Isolation_Mode">
</g>
</svg>
