<?xml version="1.0" encoding="utf-8"?>
<!-- Generator: Adobe Illustrator 19.1.0, SVG Export Plug-In . SVG Version: 6.00 Build 0)  -->
<svg version="1.1" xmlns="http://www.w3.org/2000/svg" xmlns:xlink="http://www.w3.org/1999/xlink" x="0px" y="0px"
	 viewBox="0 0 400 400" style="enable-background:new 0 0 400 400;" xml:space="preserve">
<style type="text/css">
	.st0{fill:#F79761;}
	.st1{fill:#F79661;}
	.st2{opacity:0.6;fill:#F79661;}
	.st3{opacity:0.39;fill:#D07F52;}
	.st4{fill:none;}
	.st5{fill:none;stroke:#000000;stroke-width:3;stroke-miterlimit:10;}
	.st6{opacity:0.63;}
	.st7{opacity:0.52;}
	.st8{opacity:0.62;}
	.st9{fill:none;stroke:#000000;stroke-width:3.659;stroke-miterlimit:10;}
	.st10{opacity:0.59;}
	.st11{opacity:0.51;}
	.st12{opacity:0.6;}
	.st13{opacity:0.51;fill:#F79661;}
	.st14{fill:none;stroke:#000000;stroke-width:2.6982;stroke-miterlimit:10;}
	.st15{opacity:0.61;fill:#F79761;}
	.st16{opacity:0.61;fill:none;stroke:#000000;stroke-width:4;stroke-miterlimit:10;}
	.st17{fill:none;stroke:#000000;stroke-width:4;stroke-miterlimit:10;}
	.st18{opacity:0.43;fill:#793919;}
	.st19{opacity:0.68;fill:#793919;}
	.st20{fill:none;stroke:#000000;stroke-width:2;stroke-miterlimit:10;}
	.st21{fill:none;stroke:#000000;stroke-width:4.2346;stroke-miterlimit:10;}
	.st22{fill:none;stroke:#000000;stroke-width:2.5473;stroke-miterlimit:10;}
	.st23{fill:none;stroke:#414042;stroke-width:2.8904;stroke-miterlimit:10;}
	.st24{fill:none;stroke:#414042;stroke-width:1.0656;stroke-miterlimit:10;}
	.st25{fill:none;stroke:#000000;stroke-width:1.2476;stroke-miterlimit:10;}
	.st26{fill:none;stroke:#414042;stroke-width:1.5;stroke-miterlimit:10;}
	.st27{fill:none;stroke:#414042;stroke-width:1.487;stroke-miterlimit:10;}
	.st28{fill:none;stroke:#414042;stroke-width:1.0456;stroke-miterlimit:10;}
	.st29{fill:#FFFFFF;}
	.st30{fill:none;stroke:#414042;stroke-width:12.1553;stroke-miterlimit:10;}
	.st31{opacity:0.8;fill:#F79661;}
	.st32{opacity:0.68;fill:#F79661;}
	.st33{fill:none;stroke:#414042;stroke-width:3;stroke-miterlimit:10;}
</style>
<g id="Layer_4">
</g>
<g id="Layer_1">
</g>
<g id="_x3C_Layer_x3E_">
	<g>
		<path class="st2" d="M52.9,171.8c0,0,63.5-71.8,142-67.2l15,29.5l118.7,112.6v52.1l-218-30.4L52.9,171.8z"/>
		<path class="st2" d="M80.9,200.5c0,0,58.8-70.6,128.9-66.5l118.7,111.1v46.5l-206.3-28.8L80.9,200.5z"/>
		<polygon class="st2" points="80.9,201.4 328.5,246 328.5,292.5 122.3,263.8 		"/>
	</g>
	<g>
		<path class="st14" d="M57.9,169.2c0,0,63.5-71.8,142-67.2l15,29.5l118.7,112.6v52.1l-218-30.4L57.9,169.2z"/>
		<path class="st14" d="M86,197.9c0,0,58.8-70.6,128.9-66.5l118.7,111.1v46.5l-206.3-28.8L86,197.9z"/>
		<polygon class="st14" points="86,198.8 333.6,243.4 333.6,289.9 127.4,261.1 		"/>
	</g>
</g>
<g id="Layer_2">
</g>
<g id="Isolation_Mode">
</g>
</svg>
