<?xml version="1.0" encoding="utf-8"?>
<!-- Generator: Adobe Illustrator 19.1.0, SVG Export Plug-In . SVG Version: 6.00 Build 0)  -->
<svg version="1.1" xmlns="http://www.w3.org/2000/svg" xmlns:xlink="http://www.w3.org/1999/xlink" x="0px" y="0px"
	 viewBox="0 0 400 400" style="enable-background:new 0 0 400 400;" xml:space="preserve">
<style type="text/css">
	.st0{fill:#F79761;}
	.st1{fill:#F79661;}
	.st2{opacity:0.6;fill:#F79661;}
	.st3{opacity:0.39;fill:#D07F52;}
	.st4{fill:none;}
	.st5{fill:none;stroke:#000000;stroke-width:3;stroke-miterlimit:10;}
	.st6{opacity:0.63;}
	.st7{opacity:0.52;}
	.st8{opacity:0.62;}
	.st9{fill:none;stroke:#000000;stroke-width:3.659;stroke-miterlimit:10;}
	.st10{opacity:0.59;}
	.st11{opacity:0.51;}
	.st12{opacity:0.6;}
	.st13{opacity:0.51;fill:#F79661;}
	.st14{fill:none;stroke:#000000;stroke-width:2.6982;stroke-miterlimit:10;}
	.st15{opacity:0.61;fill:#F79761;}
	.st16{opacity:0.61;fill:none;stroke:#000000;stroke-width:4;stroke-miterlimit:10;}
	.st17{fill:none;stroke:#000000;stroke-width:4;stroke-miterlimit:10;}
	.st18{opacity:0.43;fill:#793919;}
	.st19{opacity:0.68;fill:#793919;}
	.st20{fill:none;stroke:#000000;stroke-width:2;stroke-miterlimit:10;}
	.st21{fill:none;stroke:#000000;stroke-width:4.2346;stroke-miterlimit:10;}
	.st22{fill:none;stroke:#000000;stroke-width:2.5473;stroke-miterlimit:10;}
	.st23{fill:none;stroke:#414042;stroke-width:2.8904;stroke-miterlimit:10;}
	.st24{fill:none;stroke:#414042;stroke-width:1.0656;stroke-miterlimit:10;}
	.st25{fill:none;stroke:#000000;stroke-width:1.2476;stroke-miterlimit:10;}
	.st26{fill:none;stroke:#414042;stroke-width:1.5;stroke-miterlimit:10;}
	.st27{fill:none;stroke:#414042;stroke-width:1.487;stroke-miterlimit:10;}
	.st28{fill:none;stroke:#414042;stroke-width:1.0456;stroke-miterlimit:10;}
	.st29{fill:#FFFFFF;}
	.st30{fill:none;stroke:#414042;stroke-width:12.1553;stroke-miterlimit:10;}
	.st31{opacity:0.8;fill:#F79661;}
	.st32{opacity:0.68;fill:#F79661;}
	.st33{fill:none;stroke:#414042;stroke-width:3;stroke-miterlimit:10;}
</style>
<g id="Layer_4">
</g>
<g id="Layer_1">
</g>
<g id="_x3C_Layer_x3E_">
	<path class="st2" d="M129.1,149.9c-5.2,0.2-9.6,3.7-12.9,7.9c-8.2,0.2-28-20.1-64.5-34.2c-0.8-0.3-4.9,3.7-3,4.7
		c1.9,1,21.9,12.3,19.8,12.2c-2.1-0.1-21.1-8.8-22.5-8.8c-1.4,0-4.4,4.7-4.4,4.7c-0.6,0.6-0.3,1.6,0.5,1.9
		c5.8,2.1,25.2,9.1,22.7,9.5c-2.9,0.5-22.9-3-25.7-3.8c-1-0.3-2.5,3.7-1.6,5.5c0.8,1.7,18.6,7.3,18.6,7.3s-20.9-4.8-21.4-4.6
		c-0.5,0.2-2.1,6.5-1.5,6.5c22,0.3,67,13.5,74.6,15.8c-2.8,7.6-4.5,16.7,2.5,21.6c42.2,29.5,240,80.6,244.3,62.7
		C358.6,241.6,166.9,148.5,129.1,149.9z"/>
	<g class="st12">
		<path class="st13" d="M41.8,138.2c5.4,1.9,22.4,8.1,22.9,9.3l288.7,112.2c0.5-0.3,0.8-0.7,0.9-1.2c4.1-17-187.7-110.1-225.5-108.7
			c-5.2,0.2-9.6,3.7-12.9,7.9c-8.2,0.2-28-20.1-64.5-34.2c-0.8-0.3-4.9,3.7-3,4.7c1.9,1,21.9,12.3,19.8,12.2
			c-2.1-0.1-21.1-8.8-22.5-8.8c-1.4,0-4.4,4.7-4.4,4.7C40.8,136.9,41,137.9,41.8,138.2z"/>
	</g>
	<path class="st5" d="M133,146.7c-5.2,0.2-9.6,3.7-12.9,7.9c-8.2,0.2-28-20.1-64.5-34.2c-0.8-0.3-4.9,3.7-3,4.7
		c1.9,1,21.9,12.3,19.8,12.2c-2.1-0.1-21.1-8.8-22.5-8.8c-1.4,0-4.4,4.7-4.4,4.7c-0.6,0.6-0.3,1.6,0.5,1.9
		c5.8,2.1,25.2,9.1,22.7,9.5c-2.9,0.5-22.9-3-25.7-3.8c-1-0.3-2.5,3.7-1.6,5.5c0.8,1.7,18.6,7.3,18.6,7.3s-20.9-4.8-21.4-4.6
		c-0.5,0.2-2.1,6.5-1.5,6.5c22,0.3,67,13.5,74.6,15.8c-2.8,7.6-4.5,16.7,2.5,21.6c42.2,29.5,240,80.6,244.3,62.7
		C362.5,238.5,170.8,145.4,133,146.7z"/>
</g>
<g id="Layer_2">
</g>
<g id="Isolation_Mode">
</g>
</svg>
