<?xml version="1.0" encoding="utf-8"?>
<!-- Generator: Adobe Illustrator 19.1.0, SVG Export Plug-In . SVG Version: 6.00 Build 0)  -->
<svg version="1.1" xmlns="http://www.w3.org/2000/svg" xmlns:xlink="http://www.w3.org/1999/xlink" x="0px" y="0px"
	 viewBox="0 0 400 400" style="enable-background:new 0 0 400 400;" xml:space="preserve">
<style type="text/css">
	.st0{fill:#F79761;}
	.st1{fill:#F79661;}
	.st2{opacity:0.6;fill:#F79661;}
	.st3{opacity:0.39;fill:#D07F52;}
	.st4{fill:none;}
	.st5{fill:none;stroke:#000000;stroke-width:3;stroke-miterlimit:10;}
	.st6{opacity:0.63;}
	.st7{opacity:0.52;}
	.st8{opacity:0.62;}
	.st9{fill:none;stroke:#000000;stroke-width:3.659;stroke-miterlimit:10;}
	.st10{opacity:0.59;}
	.st11{opacity:0.51;}
	.st12{opacity:0.6;}
	.st13{opacity:0.51;fill:#F79661;}
	.st14{fill:none;stroke:#000000;stroke-width:2.6982;stroke-miterlimit:10;}
	.st15{opacity:0.61;fill:#F79761;}
	.st16{opacity:0.61;fill:none;stroke:#000000;stroke-width:4;stroke-miterlimit:10;}
	.st17{fill:none;stroke:#000000;stroke-width:4;stroke-miterlimit:10;}
	.st18{opacity:0.43;fill:#793919;}
	.st19{opacity:0.68;fill:#793919;}
	.st20{fill:none;stroke:#000000;stroke-width:2;stroke-miterlimit:10;}
	.st21{fill:none;stroke:#000000;stroke-width:4.2346;stroke-miterlimit:10;}
	.st22{fill:none;stroke:#000000;stroke-width:2.5473;stroke-miterlimit:10;}
	.st23{fill:none;stroke:#414042;stroke-width:2.8904;stroke-miterlimit:10;}
	.st24{fill:none;stroke:#414042;stroke-width:1.0656;stroke-miterlimit:10;}
	.st25{fill:none;stroke:#000000;stroke-width:1.2476;stroke-miterlimit:10;}
	.st26{fill:none;stroke:#414042;stroke-width:1.5;stroke-miterlimit:10;}
	.st27{fill:none;stroke:#414042;stroke-width:1.487;stroke-miterlimit:10;}
	.st28{fill:none;stroke:#414042;stroke-width:1.0456;stroke-miterlimit:10;}
	.st29{fill:#FFFFFF;}
	.st30{fill:none;stroke:#414042;stroke-width:12.1553;stroke-miterlimit:10;}
	.st31{opacity:0.8;fill:#F79661;}
	.st32{opacity:0.68;fill:#F79661;}
	.st33{fill:none;stroke:#414042;stroke-width:3;stroke-miterlimit:10;}
</style>
<g id="Layer_4">
</g>
<g id="Layer_1">
</g>
<g id="_x3C_Layer_x3E_">
</g>
<g id="Layer_2">
	<g>
		<path class="st1" d="M129.1,220.4c-0.1-0.3,0.1-0.7,0.5-0.7c10-0.9,126.5-10.8,130.8-6.9c4.3,3.8-23.5,40.6-25.8,43.8
			c-0.1,0.1-0.3,0.2-0.4,0.2h-4.5c-0.2,0-0.4-0.1-0.5-0.3l-7.9-18.5c-0.1-0.2-0.3-0.4-0.6-0.3l-13.8,1.9c-0.3,0-0.5,0.3-0.5,0.6
			l1.4,22.6c0,0.3-0.2,0.6-0.5,0.6h-16.8c-0.3,0-0.5-0.2-0.5-0.4l-4.4-21.4c-0.1-0.3-0.3-0.4-0.5-0.4l-13.6-0.1
			c-0.3,0-0.5,0.2-0.5,0.5v18.5c0,0.4-0.4,0.7-0.8,0.5C165.2,258.1,137.1,244.1,129.1,220.4z"/>
		<path class="st32" d="M247.9,136.7c-17.4-2.5-26.3,5.8-26.3,5.8c-5.1-1.1-9-1.3-12-1c0.3-0.2,0.6-0.5,1-0.8
			c-1.7-32.6-23.9-41.7-31.5-43.4c-4.3-0.9-19.3,11.5-13.9,12.9c28.7,7.5,24.8,25.2,22.7,31c-3.1-0.7-7-0.1-12.1,3
			c-7.2-8.6-22.2-4-22.2-4s-5.9-8.1-18.9-6.1C51.9,141.9,76.8,298,164.3,294c4.8-0.2,19-2.6,19-2.6c11.9,5.6,24.5,0.4,24.5,0.4
			c7.5,3.5,38.1-1.1,45.5-6C364.4,265.8,302.4,103.6,247.9,136.7z"/>
		<path class="st1" d="M165.9,166.9l14.6,36.3c0.2,0.5-0.2,1-0.7,1l-38.6-4.2c-0.5-0.1-0.8-0.7-0.5-1.1l24-32
			C165,166.3,165.7,166.4,165.9,166.9z"/>
		<path class="st1" d="M225.1,166.6l-11.2,34.5c-0.1,0.3,0.1,0.6,0.5,0.6l33.3-1.9c0.4,0,0.6-0.4,0.4-0.7l-22-32.5
			C225.7,166.2,225.2,166.3,225.1,166.6z"/>
	</g>
	<g>
		<path class="st5" d="M134,216.5c-0.1-0.3,0.1-0.7,0.5-0.7c10-0.9,126.5-10.8,130.8-6.9c4.3,3.8-23.5,40.6-25.8,43.8
			c-0.1,0.1-0.3,0.2-0.4,0.2h-4.5c-0.2,0-0.4-0.1-0.5-0.3l-7.9-18.5c-0.1-0.2-0.3-0.4-0.6-0.3l-13.8,1.9c-0.3,0-0.5,0.3-0.5,0.6
			l1.4,22.6c0,0.3-0.2,0.6-0.5,0.6h-16.8c-0.3,0-0.5-0.2-0.5-0.4l-4.4-21.4c-0.1-0.3-0.3-0.4-0.5-0.4l-13.6-0.1
			c-0.3,0-0.5,0.2-0.5,0.5V256c0,0.4-0.4,0.7-0.8,0.5C170,254.2,142,240.2,134,216.5z"/>
		<path class="st5" d="M252.8,132.8c-17.4-2.5-26.3,5.8-26.3,5.8c-5.1-1.1-9-1.3-12-1c0.3-0.2,0.6-0.5,1-0.8
			c-1.7-32.6-23.9-41.7-31.5-43.4c-4.3-0.9-19.3,11.5-13.9,12.9c28.7,7.5,24.8,25.2,22.7,31c-3.1-0.7-7-0.1-12.1,3
			c-7.2-8.6-22.2-4-22.2-4s-5.9-8.1-18.9-6.1c-82.8,7.8-57.9,163.9,29.6,159.9c4.8-0.2,19-2.6,19-2.6c11.9,5.6,24.5,0.4,24.5,0.4
			c7.5,3.5,38.1-1.1,45.5-6C369.2,261.9,307.2,99.7,252.8,132.8z"/>
		<path class="st5" d="M170.7,163l14.6,36.3c0.2,0.5-0.2,1-0.7,1L146,196c-0.5-0.1-0.8-0.7-0.5-1.1l24-32
			C169.8,162.4,170.5,162.5,170.7,163z"/>
		<path class="st5" d="M229.9,162.7l-11.2,34.5c-0.1,0.3,0.1,0.6,0.5,0.6l33.3-1.9c0.4,0,0.6-0.4,0.4-0.7l-22-32.5
			C230.6,162.3,230.1,162.4,229.9,162.7z"/>
	</g>
</g>
<g id="Isolation_Mode">
</g>
</svg>
