<?xml version="1.0" encoding="utf-8"?>
<!-- Generator: Adobe Illustrator 19.1.0, SVG Export Plug-In . SVG Version: 6.00 Build 0)  -->
<svg version="1.1" xmlns="http://www.w3.org/2000/svg" xmlns:xlink="http://www.w3.org/1999/xlink" x="0px" y="0px"
	 viewBox="0 0 400 400" style="enable-background:new 0 0 400 400;" xml:space="preserve">
<style type="text/css">
	.st0{fill:#F79761;}
	.st1{fill:#F79661;}
	.st2{opacity:0.6;fill:#F79661;}
	.st3{opacity:0.39;fill:#D07F52;}
	.st4{fill:none;}
	.st5{fill:none;stroke:#000000;stroke-width:3;stroke-miterlimit:10;}
	.st6{opacity:0.63;}
	.st7{opacity:0.52;}
	.st8{opacity:0.62;}
	.st9{fill:none;stroke:#000000;stroke-width:3.659;stroke-miterlimit:10;}
	.st10{opacity:0.59;}
	.st11{opacity:0.51;}
	.st12{opacity:0.6;}
	.st13{opacity:0.51;fill:#F79661;}
	.st14{fill:none;stroke:#000000;stroke-width:2.6982;stroke-miterlimit:10;}
	.st15{opacity:0.61;fill:#F79761;}
	.st16{opacity:0.61;fill:none;stroke:#000000;stroke-width:4;stroke-miterlimit:10;}
	.st17{fill:none;stroke:#000000;stroke-width:4;stroke-miterlimit:10;}
	.st18{opacity:0.43;fill:#793919;}
	.st19{opacity:0.68;fill:#793919;}
	.st20{fill:none;stroke:#000000;stroke-width:2;stroke-miterlimit:10;}
	.st21{fill:none;stroke:#000000;stroke-width:4.2346;stroke-miterlimit:10;}
	.st22{fill:none;stroke:#000000;stroke-width:2.5473;stroke-miterlimit:10;}
	.st23{fill:none;stroke:#414042;stroke-width:2.8904;stroke-miterlimit:10;}
	.st24{fill:none;stroke:#414042;stroke-width:1.0656;stroke-miterlimit:10;}
	.st25{fill:none;stroke:#000000;stroke-width:1.2476;stroke-miterlimit:10;}
	.st26{fill:none;stroke:#414042;stroke-width:1.5;stroke-miterlimit:10;}
	.st27{fill:none;stroke:#414042;stroke-width:1.487;stroke-miterlimit:10;}
	.st28{fill:none;stroke:#414042;stroke-width:1.0456;stroke-miterlimit:10;}
	.st29{fill:#FFFFFF;}
	.st30{fill:none;stroke:#414042;stroke-width:12.1553;stroke-miterlimit:10;}
	.st31{opacity:0.8;fill:#F79661;}
	.st32{opacity:0.68;fill:#F79661;}
	.st33{fill:none;stroke:#414042;stroke-width:3;stroke-miterlimit:10;}
</style>
<g id="Layer_4">
</g>
<g id="Layer_1">
</g>
<g id="_x3C_Layer_x3E_">
	<g>
		<path class="st2" d="M267.2,237.7c-3.8-21.6-21.2-119.8-21.2-122.6c-3.7-29.9-88.6-35.3-95.3,0l-21,122.4
			c-4.3,5.1-6.8,11-6.6,17.9c0.9,42.6,150.9,45,150.9,0C274,248.6,271.5,242.7,267.2,237.7z"/>
		<path class="st2" d="M123.1,255.3c-1.1-52.7,150.9-52.9,150.9,0C274,300.3,124,298,123.1,255.3z"/>
		<path class="st2" d="M147.5,265.4c0,0-10.7,16.2-18.5,40.7c-0.1,0.4,0.8,2,0.8,2s2.7,2.3,8.4,2.9c2.7,0.2,25.9-34.2,25.9-34.2
			S153.3,274.7,147.5,265.4z"/>
	</g>
	<path class="st2" d="M141,277c-3.6,7.1-8.2,17.1-12,29.1c-0.1,0.4,0.8,2,0.8,2s2.7,2.3,8.4,2.9c1.9,0.1,14.4-17.5,21.3-27.5
		c11.8,3,25.4,4.5,39.1,4.6V90.6c-22.2-0.4-44.5,7.1-47.8,24.5l-21,122.4c-4.3,5.1-6.8,11-6.6,17.9C123.2,264.4,130.2,271.6,141,277
		z"/>
	<g>
		<path class="st9" d="M270.2,243c-3.8-21.6-21.2-119.8-21.2-122.6c-3.7-29.9-88.6-35.3-95.3,0l-21,122.4c-4.3,5.1-6.8,11-6.6,17.9
			c0.9,42.6,150.9,45,150.9,0C277,253.9,274.5,248,270.2,243z"/>
		<path class="st9" d="M126,260.6c-1.1-52.7,150.9-52.9,150.9,0C277,305.6,126.9,303.3,126,260.6z"/>
		<path class="st9" d="M150.5,270.7c0,0-10.7,16.2-18.5,40.7c-0.1,0.4,0.8,2,0.8,2s2.7,2.3,8.4,2.9c2.7,0.2,25.9-34.2,25.9-34.2
			S156.3,280,150.5,270.7z"/>
	</g>
</g>
<g id="Layer_2">
</g>
<g id="Isolation_Mode">
</g>
</svg>
