<?xml version="1.0" encoding="utf-8"?>
<!-- Generator: Adobe Illustrator 19.1.0, SVG Export Plug-In . SVG Version: 6.00 Build 0)  -->
<svg version="1.1" xmlns="http://www.w3.org/2000/svg" xmlns:xlink="http://www.w3.org/1999/xlink" x="0px" y="0px"
	 viewBox="0 0 400 400" style="enable-background:new 0 0 400 400;" xml:space="preserve">
<style type="text/css">
	.st0{fill:#F79761;}
	.st1{fill:#F79661;}
	.st2{opacity:0.6;fill:#F79661;}
	.st3{opacity:0.39;fill:#D07F52;}
	.st4{fill:none;}
	.st5{fill:none;stroke:#000000;stroke-width:3;stroke-miterlimit:10;}
	.st6{opacity:0.63;}
	.st7{opacity:0.52;}
	.st8{opacity:0.62;}
	.st9{fill:none;stroke:#000000;stroke-width:3.659;stroke-miterlimit:10;}
	.st10{opacity:0.59;}
	.st11{opacity:0.51;}
	.st12{opacity:0.6;}
	.st13{opacity:0.51;fill:#F79661;}
	.st14{fill:none;stroke:#000000;stroke-width:2.6982;stroke-miterlimit:10;}
	.st15{opacity:0.61;fill:#F79761;}
	.st16{opacity:0.61;fill:none;stroke:#000000;stroke-width:4;stroke-miterlimit:10;}
	.st17{fill:none;stroke:#000000;stroke-width:4;stroke-miterlimit:10;}
	.st18{opacity:0.43;fill:#793919;}
	.st19{opacity:0.68;fill:#793919;}
	.st20{fill:none;stroke:#000000;stroke-width:2;stroke-miterlimit:10;}
	.st21{fill:none;stroke:#000000;stroke-width:4.2346;stroke-miterlimit:10;}
	.st22{fill:none;stroke:#000000;stroke-width:2.5473;stroke-miterlimit:10;}
	.st23{fill:none;stroke:#414042;stroke-width:2.8904;stroke-miterlimit:10;}
	.st24{fill:none;stroke:#414042;stroke-width:1.0656;stroke-miterlimit:10;}
	.st25{fill:none;stroke:#000000;stroke-width:1.2476;stroke-miterlimit:10;}
	.st26{fill:none;stroke:#414042;stroke-width:1.5;stroke-miterlimit:10;}
	.st27{fill:none;stroke:#414042;stroke-width:1.487;stroke-miterlimit:10;}
	.st28{fill:none;stroke:#414042;stroke-width:1.0456;stroke-miterlimit:10;}
	.st29{fill:#FFFFFF;}
	.st30{fill:none;stroke:#414042;stroke-width:12.1553;stroke-miterlimit:10;}
	.st31{opacity:0.8;fill:#F79661;}
	.st32{opacity:0.68;fill:#F79661;}
	.st33{fill:none;stroke:#414042;stroke-width:3;stroke-miterlimit:10;}
</style>
<g id="Layer_4">
</g>
<g id="Layer_1">
</g>
<g id="_x3C_Layer_x3E_">
	<g>
		<path class="st2" d="M260.1,116.2l-6.7-4.5c0,0-1.6-15.5-3.9-17.5c-2.1-1.8-34.4-5.3-51.4-5.3c-20,0-49.4,3.5-51.4,5.3
			c-2.4,2-3.9,17.5-3.9,17.5l-6.7,4.5c0,0-0.8,7.3,0,10.6c0.8,3.3,5.1,2,5.1,2l0.7,5.5l1.7,2.5l13.8,177.4c0,0,11.8,7.5,40.7,7.5
			c28.9,0,39.1-7.1,39.1-7.1l17.3-177.7l1.3-2.2l-0.7-5.8c0,0,4.3,1.2,5.1-2C260.9,123.6,260.1,116.2,260.1,116.2z"/>
		<path class="st2" d="M260.1,116.2l-6.7-4.5c0,0-1.6-15.5-3.9-17.5c-2.1-1.8-34.4-5.3-51.4-5.3c-20,0-49.4,3.5-51.4,5.3
			c-2.4,2-3.9,17.5-3.9,17.5l-6.7,4.5c0,0-0.8,7.3,0,10.6c0.8,3.3,2.1,1.4,5.1,2c27,5.3,87.1,6.2,113.8,0c2.2-0.5,4.3,1.2,5.1-2
			C260.9,123.6,260.1,116.2,260.1,116.2z"/>
		<path class="st2" d="M260.1,116.2l-6.7-4.5c0,0-1.6-15.5-3.9-17.5c-2.1-1.8-34.4-5.3-51.4-5.3v232.7c28.9,0,39.1-7.1,39.1-7.1
			l17.3-177.7l1.3-2.2l-0.7-5.8c0,0,4.3,1.2,5.1-2C260.9,123.6,260.1,116.2,260.1,116.2z"/>
	</g>
	<g>
		<path class="st5" d="M263.9,112.4l-6.7-4.5c0,0-1.6-15.5-3.9-17.5c-2.1-1.8-34.4-5.3-51.4-5.3c-20,0-49.4,3.5-51.4,5.3
			c-2.4,2-3.9,17.5-3.9,17.5l-6.7,4.5c0,0-0.8,7.3,0,10.6c0.8,3.3,5.1,2,5.1,2l0.7,5.5l1.7,2.5l13.8,177.4c0,0,11.8,7.5,40.7,7.5
			c28.9,0,39.1-7.1,39.1-7.1l17.3-177.7l1.3-2.2l-0.7-5.8c0,0,4.3,1.2,5.1-2C264.7,119.8,263.9,112.4,263.9,112.4z"/>
		<path class="st5" d="M263.9,112.4l-6.7-4.5c0,0-1.6-15.5-3.9-17.5c-2.1-1.8-34.4-5.3-51.4-5.3c-20,0-49.4,3.5-51.4,5.3
			c-2.4,2-3.9,17.5-3.9,17.5l-6.7,4.5c0,0-0.8,7.3,0,10.6c0.8,3.3,2.1,1.4,5.1,2c27,5.3,87.1,6.2,113.8,0c2.2-0.5,4.3,1.2,5.1-2
			C264.7,119.8,263.9,112.4,263.9,112.4z"/>
	</g>
</g>
<g id="Layer_2">
</g>
<g id="Isolation_Mode">
</g>
</svg>
