<?xml version="1.0" encoding="utf-8"?>
<!-- Generator: Adobe Illustrator 19.1.0, SVG Export Plug-In . SVG Version: 6.00 Build 0)  -->
<svg version="1.1" xmlns="http://www.w3.org/2000/svg" xmlns:xlink="http://www.w3.org/1999/xlink" x="0px" y="0px"
	 viewBox="0 0 250 320" style="enable-background:new 0 0 250 320;" xml:space="preserve">
<style type="text/css">
	.st0{fill:#F79761;}
	.st1{fill:#F79661;}
	.st2{opacity:0.6;fill:#F79661;}
	.st3{opacity:0.39;fill:#D07F52;}
	.st4{fill:none;}
	.st5{fill:none;stroke:#000000;stroke-width:3;stroke-miterlimit:10;}
	.st6{opacity:0.63;}
	.st7{opacity:0.52;}
	.st8{opacity:0.62;}
	.st9{fill:none;stroke:#000000;stroke-width:3.659;stroke-miterlimit:10;}
	.st10{opacity:0.59;}
	.st11{opacity:0.51;}
	.st12{opacity:0.6;}
	.st13{opacity:0.51;fill:#F79661;}
	.st14{fill:none;stroke:#000000;stroke-width:2.6982;stroke-miterlimit:10;}
	.st15{fill:none;stroke:#000000;stroke-width:1.7874;stroke-miterlimit:10;}
	.st16{fill:none;stroke:#000000;stroke-width:1.4969;stroke-miterlimit:10;}
	.st17{fill:none;stroke:#000000;stroke-width:2.1801;stroke-miterlimit:10;}
	.st18{fill:none;stroke:#000000;stroke-width:1.4614;stroke-miterlimit:10;}
	.st19{fill:none;stroke:#000000;stroke-width:1.195;stroke-miterlimit:10;}
	.st20{fill:none;stroke:#000000;stroke-width:1.6076;stroke-miterlimit:10;}
	.st21{fill:none;stroke:#000000;stroke-width:0.9811;stroke-miterlimit:10;}
	.st22{fill:none;stroke:#000000;stroke-width:1.3467;stroke-miterlimit:10;}
	.st23{fill:none;stroke:#000000;stroke-width:0.8961;stroke-miterlimit:10;}
	.st24{fill:none;stroke:#000000;stroke-width:0.7505;stroke-miterlimit:10;}
	.st25{fill:none;stroke:#000000;stroke-width:1.093;stroke-miterlimit:10;}
	.st26{fill:none;stroke:#000000;stroke-width:0.7327;stroke-miterlimit:10;}
	.st27{fill:none;stroke:#000000;stroke-width:0.5991;stroke-miterlimit:10;}
	.st28{fill:none;stroke:#000000;stroke-width:0.806;stroke-miterlimit:10;}
	.st29{fill:none;stroke:#000000;stroke-width:0.4919;stroke-miterlimit:10;}
	.st30{fill:none;stroke:#000000;stroke-width:0.6752;stroke-miterlimit:10;}
	.st31{opacity:0.56;}
	.st32{opacity:0.61;fill:#F79761;}
	.st33{opacity:0.61;fill:none;stroke:#000000;stroke-width:4;stroke-miterlimit:10;}
	.st34{fill:none;stroke:#000000;stroke-width:4;stroke-miterlimit:10;}
	.st35{opacity:0.43;fill:#793919;}
	.st36{opacity:0.68;fill:#793919;}
	.st37{fill:none;stroke:#000000;stroke-width:2;stroke-miterlimit:10;}
	.st38{fill:none;stroke:#000000;stroke-width:4.2346;stroke-miterlimit:10;}
	.st39{fill:none;stroke:#000000;stroke-width:2.5473;stroke-miterlimit:10;}
	.st40{fill:none;stroke:#414042;stroke-width:2.8904;stroke-miterlimit:10;}
	.st41{fill:none;stroke:#414042;stroke-width:1.0656;stroke-miterlimit:10;}
	.st42{fill:none;stroke:#000000;stroke-width:1.2476;stroke-miterlimit:10;}
	.st43{fill:none;stroke:#414042;stroke-width:1.5;stroke-miterlimit:10;}
	.st44{fill:none;stroke:#414042;stroke-width:1.487;stroke-miterlimit:10;}
	.st45{fill:none;stroke:#414042;stroke-width:1.0456;stroke-miterlimit:10;}
	.st46{fill:#FFFFFF;}
	.st47{fill:none;stroke:#414042;stroke-width:12.1553;stroke-miterlimit:10;}
	.st48{opacity:0.8;fill:#F79661;}
	.st49{opacity:0.68;fill:#F79661;}
	.st50{fill:none;stroke:#414042;stroke-width:3;stroke-miterlimit:10;}
	.st51{fill:none;stroke:#414042;stroke-width:1.7874;stroke-miterlimit:10;}
	.st52{fill:none;stroke:#414042;stroke-width:1.2648;stroke-miterlimit:10;}
	.st53{fill:none;stroke:#414042;stroke-width:1.5091;stroke-miterlimit:10;}
	.st54{fill:none;stroke:#414042;stroke-width:0.8961;stroke-miterlimit:10;}
	.st55{fill:none;stroke:#414042;stroke-width:0.6341;stroke-miterlimit:10;}
	.st56{fill:none;stroke:#414042;stroke-width:0.7566;stroke-miterlimit:10;}
</style>
<g id="Layer_4">
</g>
<g id="Layer_1">
</g>
<g id="_x3C_Layer_x3E_">
	<g>
		<g>
			<path class="st2" d="M38.4,112.4l-2.4-0.2c0,0-2.6-3.9-3.5-4.1c-0.8-0.2-9.8,3.4-14.3,5.8c-5.3,2.8-12.5,7.9-12.8,8.6
				c-0.3,0.9,1.4,5.2,1.4,5.2l-1.1,2.1c0,0,0.8,2,1.5,2.8c0.7,0.7,1.6-0.2,1.6-0.2l1,1.3l0.8,0.4l28.5,44.8c0,0,4.1,0.3,11.8-3.7
				c7.6-4.1,9.3-7.4,9.3-7.4l-20.4-49.3l0-0.8l-1-1.4c0,0,1.3-0.3,1.1-1.3S38.4,112.4,38.4,112.4z"/>
			<path class="st2" d="M38.4,112.4l-2.4-0.2c0,0-2.6-3.9-3.5-4.1c-0.8-0.2-9.8,3.4-14.3,5.8c-5.3,2.8-12.5,7.9-12.8,8.6
				c-0.3,0.9,1.4,5.2,1.4,5.2l-1.1,2.1c0,0,0.8,2,1.5,2.8c0.7,0.7,0.8,0.1,1.6-0.2c7.9-2.4,23.8-10.6,30-16c0.5-0.4,1.3-0.3,1.1-1.3
				S38.4,112.4,38.4,112.4z"/>
			<path class="st2" d="M38.4,112.4l-2.4-0.2c0,0-2.6-3.9-3.5-4.1c-0.8-0.2-9.8,3.4-14.3,5.8l32.7,61.4c7.6-4.1,9.3-7.4,9.3-7.4
				l-20.4-49.3l0-0.8l-1-1.4c0,0,1.3-0.3,1.1-1.3S38.4,112.4,38.4,112.4z"/>
		</g>
		<g>
			<path class="st23" d="M38.8,110.9l-2.4-0.2c0,0-2.6-3.9-3.5-4.1c-0.8-0.2-9.8,3.4-14.3,5.8c-5.3,2.8-12.5,7.9-12.8,8.6
				c-0.3,0.9,1.4,5.2,1.4,5.2l-1.1,2.1c0,0,0.8,2,1.5,2.8c0.7,0.7,1.6-0.2,1.6-0.2l1,1.3l0.8,0.4l28.5,44.8c0,0,4.1,0.3,11.8-3.7
				c7.6-4.1,9.3-7.4,9.3-7.4l-20.4-49.3l0-0.8l-1-1.4c0,0,1.3-0.3,1.1-1.3S38.8,110.9,38.8,110.9z"/>
			<path class="st23" d="M38.8,110.9l-2.4-0.2c0,0-2.6-3.9-3.5-4.1c-0.8-0.2-9.8,3.4-14.3,5.8c-5.3,2.8-12.5,7.9-12.8,8.6
				c-0.3,0.9,1.4,5.2,1.4,5.2l-1.1,2.1c0,0,0.8,2,1.5,2.8c0.7,0.7,0.8,0.1,1.6-0.2c7.9-2.4,23.8-10.6,30-16c0.5-0.4,1.3-0.3,1.1-1.3
				S38.8,110.9,38.8,110.9z"/>
		</g>
	</g>
	<g>
		<g>
			<path class="st2" d="M193,123.3l2.4-0.5c0,0,3.6,3,4.5,2.9c0.8-0.1,8.4-6.1,12-9.7c4.2-4.2,9.8-11.1,9.8-11.9
				c0.1-0.9-2.8-4.5-2.8-4.5l0.5-2.4c0,0-1.4-1.7-2.2-2.2c-0.9-0.5-1.5,0.6-1.5,0.6l-1.3-1l-0.9-0.2l-40.2-34.8c0,0-4.1,0.9-10.2,7
				c-6.1,6.1-6.8,9.7-6.8,9.7l33.6,41.4l0.2,0.7l1.4,1.1c0,0-1.2,0.6-0.7,1.5C191.3,121.9,193,123.3,193,123.3z"/>
			<path class="st2" d="M193,123.3l2.4-0.5c0,0,3.6,3,4.5,2.9c0.8-0.1,8.4-6.1,12-9.7c4.2-4.2,9.8-11.1,9.8-11.9
				c0.1-0.9-2.8-4.5-2.8-4.5l0.5-2.4c0,0-1.4-1.7-2.2-2.2c-0.9-0.5-0.7,0.1-1.5,0.6c-6.9,4.5-19.8,17-24.2,23.9
				c-0.4,0.6-1.2,0.6-0.7,1.5C191.3,121.9,193,123.3,193,123.3z"/>
			<path class="st2" d="M193,123.3l2.4-0.5c0,0,3.6,3,4.5,2.9c0.8-0.1,8.4-6.1,12-9.7l-48.9-49.4c-6.1,6.1-6.8,9.7-6.8,9.7
				l33.6,41.4l0.2,0.7l1.4,1.1c0,0-1.2,0.6-0.7,1.5S193,123.3,193,123.3z"/>
		</g>
		<g>
			<path class="st23" d="M193,124.9l2.4-0.5c0,0,3.6,3,4.5,2.9c0.8-0.1,8.4-6.1,12-9.7c4.2-4.2,9.8-11.1,9.8-11.9
				c0.1-0.9-2.8-4.5-2.8-4.5l0.5-2.4c0,0-1.4-1.7-2.2-2.2c-0.9-0.5-1.5,0.6-1.5,0.6l-1.3-1l-0.9-0.2l-40.2-34.8c0,0-4.1,0.9-10.2,7
				c-6.1,6.1-6.8,9.7-6.8,9.7l33.6,41.4l0.2,0.7l1.4,1.1c0,0-1.2,0.6-0.7,1.5C191.3,123.5,193,124.9,193,124.9z"/>
			<path class="st23" d="M193,124.9l2.4-0.5c0,0,3.6,3,4.5,2.9c0.8-0.1,8.4-6.1,12-9.7c4.2-4.2,9.8-11.1,9.8-11.9
				c0.1-0.9-2.8-4.5-2.8-4.5l0.5-2.4c0,0-1.4-1.7-2.2-2.2c-0.9-0.5-0.7,0.1-1.5,0.6c-6.9,4.5-19.8,17-24.2,23.9
				c-0.4,0.6-1.2,0.6-0.7,1.5C191.3,123.5,193,124.9,193,124.9z"/>
		</g>
	</g>
	<g>
		<g>
			<path class="st2" d="M238.7,197.4l-2.2-1c0,0-1.3-4.5-2.1-4.9c-0.7-0.4-10.4,0.3-15.4,1.2c-5.9,1.1-14.3,3.6-14.8,4.3
				c-0.6,0.7-0.2,5.4-0.2,5.4l-1.7,1.7c0,0,0.2,2.2,0.6,3.1c0.4,0.9,1.6,0.3,1.6,0.3l0.5,1.6l0.6,0.7L219,261c0,0,3.9,1.6,12.4,0
				c8.5-1.5,11.1-4.2,11.1-4.2l-4.3-53.1l0.3-0.7l-0.5-1.7c0,0,1.3,0.1,1.4-0.9C239.4,199.5,238.7,197.4,238.7,197.4z"/>
			<path class="st2" d="M238.7,197.4l-2.2-1c0,0-1.3-4.5-2.1-4.9c-0.7-0.4-10.4,0.3-15.4,1.2c-5.9,1.1-14.3,3.6-14.8,4.3
				c-0.6,0.7-0.2,5.4-0.2,5.4l-1.7,1.7c0,0,0.2,2.2,0.6,3.1c0.4,0.9,0.7,0.3,1.6,0.3c8.2,0.1,25.9-2.8,33.5-6
				c0.6-0.3,1.3,0.1,1.4-0.9C239.4,199.5,238.7,197.4,238.7,197.4z"/>
			<path class="st2" d="M238.7,197.4l-2.2-1c0,0-1.3-4.5-2.1-4.9c-0.7-0.4-10.4,0.3-15.4,1.2l12.3,68.4c8.5-1.5,11.1-4.2,11.1-4.2
				l-4.3-53.1l0.3-0.7l-0.5-1.7c0,0,1.3,0.1,1.4-0.9S238.7,197.4,238.7,197.4z"/>
		</g>
		<g>
			<path class="st23" d="M239.7,196.1l-2.2-1c0,0-1.3-4.5-2.1-4.9c-0.7-0.4-10.4,0.3-15.4,1.2c-5.9,1.1-14.3,3.6-14.8,4.3
				c-0.6,0.7-0.2,5.4-0.2,5.4l-1.7,1.7c0,0,0.2,2.2,0.6,3.1c0.4,0.9,1.6,0.3,1.6,0.3l0.5,1.6l0.6,0.7l13.4,51.4c0,0,3.9,1.6,12.4,0
				c8.5-1.5,11.1-4.2,11.1-4.2l-4.3-53.1l0.3-0.7l-0.5-1.7c0,0,1.3,0.1,1.4-0.9C240.3,198.2,239.7,196.1,239.7,196.1z"/>
			<path class="st23" d="M239.7,196.1l-2.2-1c0,0-1.3-4.5-2.1-4.9c-0.7-0.4-10.4,0.3-15.4,1.2c-5.9,1.1-14.3,3.6-14.8,4.3
				c-0.6,0.7-0.2,5.4-0.2,5.4l-1.7,1.7c0,0,0.2,2.2,0.6,3.1c0.4,0.9,0.7,0.3,1.6,0.3c8.2,0.1,25.9-2.8,33.5-6
				c0.6-0.3,1.3,0.1,1.4-0.9C240.3,198.2,239.7,196.1,239.7,196.1z"/>
		</g>
	</g>
	<g>
		<g>
			<path class="st2" d="M56.8,253.2l-2,0.2c0,0-2.8-2.7-3.6-2.7c-0.7,0-7.4,4.5-10.7,7.3c-3.8,3.2-8.9,8.6-9,9.3
				c-0.1,0.8,2.1,4,2.1,4l-0.6,1.9c0,0,1,1.5,1.7,2c0.7,0.5,1.3-0.4,1.3-0.4l1,0.9l0.7,0.2l31.2,31.8c0,0,3.5-0.5,9-5.1
				c5.5-4.7,6.3-7.6,6.3-7.6L59,258.1l-0.1-0.6l-1.1-1c0,0,1-0.5,0.7-1.2C58.1,254.5,56.8,253.2,56.8,253.2z"/>
			<path class="st2" d="M56.8,253.2l-2,0.2c0,0-2.8-2.7-3.6-2.7c-0.7,0-7.4,4.5-10.7,7.3c-3.8,3.2-8.9,8.6-9,9.3
				c-0.1,0.8,2.1,4,2.1,4l-0.6,1.9c0,0,1,1.5,1.7,2c0.7,0.5,0.6-0.1,1.3-0.4c6-3.3,17.7-12.8,21.8-18.3c0.3-0.5,1-0.5,0.7-1.2
				C58.1,254.5,56.8,253.2,56.8,253.2z"/>
			<path class="st2" d="M56.8,253.2l-2,0.2c0,0-2.8-2.7-3.6-2.7c-0.7,0-7.4,4.5-10.7,7.3l37.4,44.6c5.5-4.7,6.3-7.6,6.3-7.6
				L59,258.1l-0.1-0.6l-1.1-1c0,0,1-0.5,0.7-1.2C58.1,254.5,56.8,253.2,56.8,253.2z"/>
		</g>
		<g>
			<path class="st24" d="M56.9,251.9l-2,0.2c0,0-2.8-2.7-3.6-2.7c-0.7,0-7.4,4.5-10.7,7.3c-3.8,3.2-8.9,8.6-9,9.3
				c-0.1,0.8,2.1,4,2.1,4l-0.6,1.9c0,0,1,1.5,1.7,2c0.7,0.5,1.3-0.4,1.3-0.4l1,0.9l0.7,0.2L69,306.3c0,0,3.5-0.5,9-5.1
				c5.5-4.7,6.3-7.6,6.3-7.6l-25.3-36.8l-0.1-0.6l-1.1-1c0,0,1-0.5,0.7-1.2C58.2,253.2,56.9,251.9,56.9,251.9z"/>
			<path class="st24" d="M56.9,251.9l-2,0.2c0,0-2.8-2.7-3.6-2.7c-0.7,0-7.4,4.5-10.7,7.3c-3.8,3.2-8.9,8.6-9,9.3
				c-0.1,0.8,2.1,4,2.1,4l-0.6,1.9c0,0,1,1.5,1.7,2c0.7,0.5,0.6-0.1,1.3-0.4c6-3.3,17.7-12.8,21.8-18.3c0.3-0.5,1-0.5,0.7-1.2
				C58.2,253.2,56.9,251.9,56.9,251.9z"/>
		</g>
	</g>
	<g>
		<g>
			<path class="st2" d="M162.5,107.5c-4.3-4.9-24-27.2-24.5-28c-5.6-7-28.1,4.8-24.3,14.8l13.7,34.5c-0.3,2,0,3.9,1.1,5.6
				c6.9,10.7,45.5-12,38.5-23.5C165.9,109.3,164.4,108.2,162.5,107.5z"/>
			<path class="st2" d="M128.5,134.5c-8.5-13.3,30.2-37,38.5-23.5C173.9,122.4,135.3,145.2,128.5,134.5z"/>
			<path class="st2" d="M136.3,133.2c0,0-0.2,5.8,1.6,13.3c0,0.1,0.5,0.4,0.5,0.4s1,0.2,2.6-0.6c0.7-0.4,1.3-12.7,1.3-12.7
				S139.2,134.7,136.3,133.2z"/>
		</g>
		<path class="st2" d="M136.4,137.2c0.2,2.4,0.6,5.6,1.5,9.3c0,0.1,0.5,0.4,0.5,0.4s1,0.2,2.6-0.6c0.5-0.3,0.9-6.7,1.1-10.3
			c3.5-1.1,7.2-2.8,10.7-4.9l-30.7-50.4c-5.7,3.3-10.3,8.7-8.4,13.7l13.7,34.5c-0.3,2,0,3.9,1.1,5.6
			C129.9,136.7,132.8,137.5,136.4,137.2z"/>
		<g>
			<path class="st25" d="M164.1,108.4c-4.3-4.9-24-27.2-24.5-28c-5.6-7-28.1,4.8-24.3,14.8l13.7,34.5c-0.3,2,0,3.9,1.1,5.6
				c6.9,10.7,45.5-12,38.5-23.5C167.5,110.2,165.9,109,164.1,108.4z"/>
			<path class="st25" d="M130.1,135.4c-8.5-13.3,30.2-37,38.5-23.5C175.5,123.3,136.9,146.1,130.1,135.4z"/>
			<path class="st25" d="M137.9,134.1c0,0-0.2,5.8,1.6,13.3c0,0.1,0.5,0.4,0.5,0.4s1,0.2,2.6-0.6c0.7-0.4,1.3-12.7,1.3-12.7
				S140.8,135.6,137.9,134.1z"/>
		</g>
	</g>
	<g>
		<g>
			<path class="st2" d="M84.1,273.8c4.3,4.9,24,27.2,24.5,28c5.6,7,28.1-4.8,24.3-14.8l-13.7-34.5c0.3-2,0-3.9-1.1-5.6
				c-6.9-10.7-45.5,12-38.5,23.5C80.7,272.1,82.2,273.2,84.1,273.8z"/>
			<path class="st2" d="M118.1,246.9c8.5,13.3-30.2,37-38.5,23.5C72.7,258.9,111.3,236.1,118.1,246.9z"/>
			<path class="st2" d="M110.3,248.1c0,0,0.2-5.8-1.6-13.3c0-0.1-0.5-0.4-0.5-0.4s-1-0.2-2.6,0.6c-0.7,0.4-1.3,12.7-1.3,12.7
				S107.4,246.6,110.3,248.1z"/>
		</g>
		<path class="st2" d="M110.2,244.1c-0.2-2.4-0.6-5.6-1.5-9.3c0-0.1-0.5-0.4-0.5-0.4s-1-0.2-2.6,0.6c-0.5,0.3-0.9,6.7-1.1,10.3
			c-3.5,1.1-7.2,2.8-10.7,4.9l30.7,50.4c5.7-3.3,10.3-8.7,8.4-13.7l-13.7-34.5c0.3-2,0-3.9-1.1-5.6
			C116.7,244.6,113.8,243.8,110.2,244.1z"/>
		<g>
			<path class="st25" d="M82.5,272.9c4.3,4.9,24,27.2,24.5,28c5.6,7,28.1-4.8,24.3-14.8l-13.7-34.5c0.3-2,0-3.9-1.1-5.6
				c-6.9-10.7-45.5,12-38.5,23.5C79.1,271.2,80.7,272.3,82.5,272.9z"/>
			<path class="st25" d="M116.5,246c8.5,13.3-30.2,37-38.5,23.5C71.1,258,109.7,235.3,116.5,246z"/>
			<path class="st25" d="M108.7,247.2c0,0,0.2-5.8-1.6-13.3c0-0.1-0.5-0.4-0.5-0.4s-1-0.2-2.6,0.6c-0.7,0.4-1.3,12.7-1.3,12.7
				S105.8,245.7,108.7,247.2z"/>
		</g>
	</g>
	<g>
		<g>
			<path class="st2" d="M87.5,20.2c0,4.4,0.1,24.4,0,24.9c-0.3,6,16.3,10,18.8,3.3l8.4-23.4c1-0.8,1.7-1.9,1.9-3.3
				c1.3-8.4-28.2-14.1-29.8-5.2C86.5,17.8,86.8,19,87.5,20.2z"/>
			<path class="st2" d="M116.5,21.7c-1.6,10.4-31.6,5.2-29.8-5.2C88.3,7.6,117.8,13.2,116.5,21.7z"/>
			<path class="st2" d="M112,18.8c0,0,2.7-2.8,5.1-7.4c0-0.1-0.1-0.4-0.1-0.4s-0.4-0.5-1.6-0.9c-0.5-0.1-6.3,5.9-6.3,5.9
				S111.2,16.8,112,18.8z"/>
		</g>
		<path class="st2" d="M113.7,16.8c1-1.3,2.2-3.1,3.4-5.3c0-0.1-0.1-0.4-0.1-0.4s-0.4-0.5-1.6-0.9c-0.4-0.1-3.4,2.9-5.1,4.7
			c-2.2-1-4.9-1.8-7.5-2.3l-6.8,39c4.4,0.9,9,0.1,10.3-3.2l8.4-23.4c1-0.8,1.7-1.9,1.9-3.3C116.8,19.9,115.7,18.2,113.7,16.8z"/>
		<g>
			<path class="st26" d="M87.1,19c0,4.4,0.1,24.4,0,24.9c-0.3,6,16.3,10,18.8,3.3l8.4-23.4c1-0.8,1.7-1.9,1.9-3.3
				c1.3-8.4-28.2-14.1-29.8-5.2C86.1,16.6,86.4,17.9,87.1,19z"/>
			<path class="st26" d="M116.1,20.5c-1.6,10.4-31.6,5.2-29.8-5.2C87.9,6.4,117.4,12.1,116.1,20.5z"/>
			<path class="st26" d="M111.6,17.7c0,0,2.7-2.8,5.1-7.4c0-0.1-0.1-0.4-0.1-0.4S116.1,9.3,115,9c-0.5-0.1-6.3,5.9-6.3,5.9
				S110.8,15.6,111.6,17.7z"/>
		</g>
	</g>
	<g>
		<g>
			<path class="st2" d="M216.4,276.5c0,3.6,0,19.9,0,20.4c-0.2,4.9,13.3,8.2,15.4,2.7l6.8-19.2c0.8-0.7,1.4-1.6,1.6-2.7
				c1.1-6.9-23.1-11.5-24.3-4.3C215.6,274.6,215.8,275.6,216.4,276.5z"/>
			<path class="st2" d="M240.1,277.8c-1.3,8.5-25.8,4.3-24.3-4.3C217,266.2,241.2,270.9,240.1,277.8z"/>
			<path class="st2" d="M236.4,275.4c0,0,2.2-2.3,4.1-6c0-0.1-0.1-0.3-0.1-0.3s-0.4-0.4-1.3-0.7c-0.4-0.1-5.1,4.8-5.1,4.8
				S235.8,273.8,236.4,275.4z"/>
		</g>
		<path class="st2" d="M237.8,273.8c0.8-1,1.8-2.5,2.8-4.4c0-0.1-0.1-0.3-0.1-0.3s-0.4-0.4-1.3-0.7c-0.3-0.1-2.8,2.4-4.2,3.8
			c-1.8-0.8-4-1.4-6.2-1.9l-5.6,31.9c3.6,0.7,7.4,0.1,8.4-2.6l6.8-19.2c0.8-0.7,1.4-1.6,1.6-2.7
			C240.3,276.3,239.4,274.9,237.8,273.8z"/>
		<g>
			<path class="st27" d="M216,275.6c0,3.6,0,19.9,0,20.4c-0.2,4.9,13.3,8.2,15.4,2.7l6.8-19.2c0.8-0.7,1.4-1.6,1.6-2.7
				c1.1-6.9-23.1-11.5-24.3-4.3C215.2,273.6,215.5,274.7,216,275.6z"/>
			<path class="st27" d="M239.8,276.8c-1.3,8.5-25.8,4.3-24.3-4.3C216.7,265.3,240.8,269.9,239.8,276.8z"/>
			<path class="st27" d="M236.1,274.5c0,0,2.2-2.3,4.1-6c0-0.1-0.1-0.3-0.1-0.3s-0.4-0.4-1.3-0.7c-0.4-0.1-5.1,4.8-5.1,4.8
				S235.4,272.8,236.1,274.5z"/>
		</g>
	</g>
	<g>
		<g>
			<path class="st2" d="M54.1,133.5c0,0,19-21.4,42.4-20.1l4.5,8.8l35.5,33.6v15.6l-65.1-9.1L54.1,133.5z"/>
			<path class="st2" d="M62.5,142.1c0,0,17.6-21.1,38.5-19.9l35.5,33.2v13.9l-61.6-8.6L62.5,142.1z"/>
			<polygon class="st2" points="62.5,142.4 136.5,155.7 136.5,169.6 74.8,161 			"/>
		</g>
		<g>
			<path class="st28" d="M55.6,132.7c0,0,19-21.4,42.4-20.1l4.5,8.8l35.5,33.6v15.6l-65.1-9.1L55.6,132.7z"/>
			<path class="st28" d="M64,141.3c0,0,17.6-21.1,38.5-19.9l35.5,33.2v13.9L76.4,160L64,141.3z"/>
			<polygon class="st28" points="64,141.6 138,154.9 138,168.8 76.4,160.2 			"/>
		</g>
	</g>
	<g>
		<g>
			<path class="st2" d="M28.8,15c0,0,14.2,10.1,14.9,24.5l-5.1,3.3L20.4,66.4l-9.4,1l1.4-40.1L28.8,15z"/>
			<path class="st2" d="M24.1,20.6c0,0,13.9,9.3,14.5,22.1L20.7,66.4l-8.4,0.9l1.3-37.9L24.1,20.6z"/>
			<polygon class="st2" points="23.9,20.7 20.6,66.4 12.1,67.3 13.4,29.3 			"/>
		</g>
		<g>
			<path class="st29" d="M29.3,15.9c0,0,14.2,10.1,14.9,24.5l-5.1,3.3L21,67.3l-9.4,1l1.4-40.1L29.3,15.9z"/>
			<path class="st29" d="M24.6,21.5c0,0,13.9,9.3,14.5,22.1L21.3,67.3l-8.4,0.9l1.3-37.9L24.6,21.5z"/>
			<polygon class="st29" points="24.5,21.5 21.1,67.3 12.7,68.2 14,30.2 			"/>
		</g>
	</g>
	<g>
		<g>
			<path class="st2" d="M100.8,224.3c0,0-8.8,22.3-27.7,27.9l-6-5.7L29.6,230l-4.4-12.3L79,206.4L100.8,224.3z"/>
			<path class="st2" d="M91.8,219.9c0,0-7.8,21.6-24.7,26.6l-37.4-16.1l-4-11l51-10.7L91.8,219.9z"/>
			<polygon class="st2" points="91.7,219.7 29.6,230.2 25.7,219.3 76.7,208.5 			"/>
		</g>
		<g>
			<path class="st30" d="M99.8,225.3c0,0-8.8,22.3-27.7,27.9l-6-5.7l-37.5-16.4l-4.4-12.3l53.9-11.3L99.8,225.3z"/>
			<path class="st30" d="M90.8,220.9c0,0-7.8,21.6-24.7,26.6l-37.4-16.1l-4-11l51-10.7L90.8,220.9z"/>
			<polygon class="st30" points="90.7,220.7 28.7,231.3 24.7,220.3 75.7,209.6 			"/>
		</g>
	</g>
	<g>
		<g>
			<path class="st2" d="M118.4,68.5c0,0-3.5-23.7,10-38l8.1,1.9l40.7-4.6l10,8.4l-40.9,36.8L118.4,68.5z"/>
			<path class="st2" d="M128.5,67.8c0,0-4.1-22.6,8-35.4l40.4-4.8l8.9,7.5l-38.7,34.9L128.5,67.8z"/>
			<polygon class="st2" points="128.6,67.9 177.1,27.7 186,35.2 147.2,70.1 			"/>
		</g>
		<g>
			<path class="st30" d="M118.8,67.1c0,0-3.5-23.7,10-38l8.1,1.9l40.7-4.6l10,8.4l-40.9,36.8L118.8,67.1z"/>
			<path class="st30" d="M128.8,66.4c0,0-4.1-22.6,8-35.4l40.4-4.8l8.9,7.5l-38.7,34.9L128.8,66.4z"/>
			<polygon class="st30" points="128.9,66.5 177.4,26.3 186.3,33.8 147.6,68.7 			"/>
		</g>
	</g>
</g>
<g id="Layer_2">
	<g>
		<g>
			<path class="st48" d="M182.9,145.4c1.2-1.1,2.3-2.5,7.2-1.5c0,0,2.7-2.5,7.8-1.7c16.3-9.9,34.8,38.6,1.6,44.5
				c-2.2,1.5-11.4,2.8-13.6,1.8c0,0-3.8,1.6-7.3-0.1c0,0-4.3,0.7-5.7,0.8c-26.1,1.2-33.6-45.4-8.8-47.8c3.9-0.6,5.7,1.8,5.7,1.8
				s4.5-1.4,6.6,1.2C179.9,142.2,181.4,144.2,182.9,145.4z"/>
			<path class="st49" d="M173.2,134.3c-1.6-0.4,2.9-4.1,4.1-3.8c2.3,0.5,8.9,3.2,9.4,13c-4.1,3.2-3.5,2.8-7,0.7
				C179.7,144.1,183.5,137,173.2,134.3z"/>
		</g>
		<g>
			<path class="st54" d="M180.4,144.2c1.2-1.1,2.3-2.5,7.2-1.5c0,0,1.8-2.8,7-2c16.5-10.4,36.7,38.4,2.4,44.9
				c-2.2,1.5-11.4,2.8-13.6,1.8c0,0-3.8,1.6-7.3-0.1c0,0-4.3,0.7-5.7,0.8c-26.1,1.2-33.6-45.4-8.8-47.8c3.9-0.6,5.7,1.8,5.7,1.8
				s4.5-1.4,6.6,1.2C177.4,141,178.9,142.9,180.4,144.2z"/>
			<path class="st54" d="M167.2,142c0,0-20.8,18.7,2.1,46"/>
			<path class="st54" d="M173.8,143.1c0,0-9.4,23.6,2.2,44"/>
			<path class="st54" d="M180.4,144.2c0,0,14.1,20.9,3,43.1"/>
			<path class="st54" d="M187.5,142.6c0,0,17.5,20,4.5,44.5"/>
			<path class="st54" d="M194.6,140.6c0,0,25.9,23.5,2.4,44.9"/>
			<path class="st54" d="M177.1,142.3c0,0,3.8-7.1-6.5-9.8c-1.6-0.4,2.9-4.1,4.1-3.8c2.3,0.5,9.3,3.1,9.4,13.7"/>
		</g>
	</g>
	<g>
		<g>
			<path class="st48" d="M169.8,270.7c1,0.6,2.3,0.9,2.8,4.4c0,0,2.3,1.2,3.1,4.8c10.5,8.4-17.2,32.5-29.2,11.9
				c-1.5-1.1-4.6-6.9-4.5-8.6c0,0-2-2.1-1.7-4.9c0,0-1.5-2.7-1.9-3.6c-7.1-17.1,22-33.4,29.6-17.5c1.3,2.4,0.2,4.2,0.2,4.2
				s2,2.6,0.8,4.7C171.2,267.9,170.3,269.4,169.8,270.7z"/>
			<path class="st49" d="M174.9,261.6c-0.1-1.2,3.4,0.9,3.6,1.8c0.2,1.6,0,6.7-6.3,9.4c-3.1-2-2.7-1.7-2.2-4.5
				C169.9,268.3,175.6,269.1,174.9,261.6z"/>
		</g>
		<g>
			<path class="st55" d="M170,268.7c1,0.6,2.3,0.9,2.8,4.4c0,0,2.3,0.5,3.1,4.2c10.9,8.4-16.6,33.7-29.2,12.5
				c-1.5-1.1-4.6-6.9-4.5-8.6c0,0-2-2.1-1.7-4.9c0,0-1.5-2.7-1.9-3.6c-7.1-17.1,22-33.4,29.6-17.5c1.3,2.4,0.2,4.2,0.2,4.2
				s2,2.6,0.8,4.7C171.4,266,170.5,267.5,170,268.7z"/>
			<path class="st55" d="M168.3,259.5c0,0-17.5-9.3-30,12.6"/>
			<path class="st55" d="M169.1,264.2c0,0-18-0.5-28.7,12.2"/>
			<path class="st55" d="M170,268.7c0,0-10.4,14.5-27.9,12.5"/>
			<path class="st55" d="M172.8,273.1c0,0-9,16.5-28.5,13.8"/>
			<path class="st55" d="M175.9,277.3c0,0-9.3,22.9-29.2,12.5"/>
			<path class="st55" d="M170.5,266.2c0,0,5.6,0.8,4.9-6.7c-0.1-1.2,3.4,0.9,3.6,1.8c0.2,1.6,0.2,6.9-6.8,9.6"/>
		</g>
	</g>
	<g>
		<g>
			<path class="st48" d="M218.9,48.3c1.1-0.1,2.4-0.4,4.7,2.2c0,0,2.6-0.2,5.1,2.4c13.4,1.5,2.8,36.7-18.3,25.7
				c-1.9-0.1-7.6-3.3-8.4-4.9c0,0-2.8-0.7-4.1-3.2c0,0-2.7-1.4-3.5-2c-15.2-10.6,0.8-40,15.7-30.6c2.4,1.3,2.4,3.5,2.4,3.5
				s3.1,1.2,3.2,3.5C218.6,45.3,218.7,47,218.9,48.3z"/>
			<path class="st49" d="M218.3,37.9c-0.7-0.9,3.4-1.1,4-0.4c1.1,1.3,3.6,5.7-0.3,11.3c-3.7,0-3.2,0-4.2-2.6
				C217.8,46.2,223,43.9,218.3,37.9z"/>
		</g>
		<g>
			<path class="st55" d="M218.1,46.6c1.1-0.1,2.4-0.4,4.7,2.2c0,0,2.2-0.8,4.8,1.9c13.7,1.3,4,37.4-18,26.2
				c-1.9-0.1-7.6-3.3-8.4-4.9c0,0-2.8-0.7-4.1-3.2c0,0-2.7-1.4-3.5-2c-15.2-10.6,0.8-40,15.7-30.6c2.4,1.3,2.4,3.5,2.4,3.5
				s3.1,1.2,3.2,3.5C217.8,43.5,217.8,45.2,218.1,46.6z"/>
			<path class="st55" d="M211.7,39.6c0,0-19.8,1.5-18.7,26.7"/>
			<path class="st55" d="M214.9,43.2c0,0-15.5,9.2-17.7,25.6"/>
			<path class="st55" d="M218.1,46.6c0,0-1.1,17.8-16.9,25.5"/>
			<path class="st55" d="M222.8,48.8c0,0,1.2,18.8-16.7,26.9"/>
			<path class="st55" d="M227.6,50.7c0,0,4.4,24.4-18,26.2"/>
			<path class="st55" d="M217.1,44.1c0,0,5.2-2.4,0.6-8.3c-0.7-0.9,3.4-1.1,4-0.4c1.1,1.3,3.9,5.8-0.6,11.7"/>
		</g>
	</g>
	<g>
		<g>
			<path class="st48" d="M88.6,94.8c-0.2,1.4,0,2.9-3.6,5c0,0-0.2,3.1-3.9,5.5c-4.5,15.4-43.7-4.3-26.3-26.9
				c0.6-2.2,5.5-8.2,7.5-8.8c0,0,1.4-3.1,4.6-4.1c0,0,2.3-2.9,3.1-3.7c15.6-15.6,46.8,9.2,32.7,24.8c-2.1,2.6-4.6,2.1-4.6,2.1
				s-2,3.4-4.8,3C92.3,95.1,90.2,94.8,88.6,94.8z"/>
			<path class="st49" d="M101,96.3c1.2-0.7,0.6,4.2-0.4,4.8c-1.7,1-7.4,3.1-13.2-2.7c0.8-4.3,0.6-3.8,4-4.4
				C91.3,93.9,93,100.5,101,96.3z"/>
		</g>
		<g>
			<path class="st56" d="M90.9,94.2c-0.2,1.4,0,2.9-3.6,5c0,0,0.4,2.8-3.2,5.3c-4.4,15.9-44.7-3.1-27-26.6c0.6-2.2,5.5-8.2,7.5-8.8
				c0,0,1.4-3.1,4.6-4.1c0,0,2.3-2.9,3.1-3.7C87.8,45.6,119,70.4,104.9,86c-2.1,2.6-4.6,2.1-4.6,2.1s-2,3.4-4.8,3
				C94.6,94.4,92.5,94.1,90.9,94.2z"/>
			<path class="st56" d="M100.3,88.1c0,0,2.3-23.5-27.5-27.5"/>
			<path class="st56" d="M95.5,91.1c0,0-7.6-20.1-26.4-26.2"/>
			<path class="st56" d="M90.9,94.2c0,0-20.7-5-26.4-25.2"/>
			<path class="st56" d="M87.3,99.2c0,0-22.3-2.5-28.1-25.2"/>
			<path class="st56" d="M84.1,104.5c0,0-29.6,0-27-26.6"/>
			<path class="st56" d="M94,93.5c0,0,1.7,6.6,9.7,2.4c1.2-0.7,0.6,4.2-0.4,4.8c-1.7,1-7.6,3.4-13.6-3.2"/>
		</g>
	</g>
	<g>
		<g>
			<path class="st1" d="M118.8,220.7c0-0.1,0-0.2,0.1-0.2c3-0.3,37.8-3.2,39.1-2.1c1.3,1.1-7,12.1-7.7,13.1c0,0-0.1,0.1-0.1,0.1
				h-1.4c-0.1,0-0.1,0-0.1-0.1l-2.4-5.5c0-0.1-0.1-0.1-0.2-0.1l-4.1,0.6c-0.1,0-0.1,0.1-0.1,0.2l0.4,6.7c0,0.1-0.1,0.2-0.2,0.2h-5
				c-0.1,0-0.1-0.1-0.2-0.1l-1.3-6.4c0-0.1-0.1-0.1-0.2-0.1l-4,0c-0.1,0-0.2,0.1-0.2,0.2v5.5c0,0.1-0.1,0.2-0.2,0.1
				C129.5,231.9,121.2,227.8,118.8,220.7z"/>
			<path class="st49" d="M154.2,195.7c-5.2-0.8-7.8,1.7-7.8,1.7c-1.5-0.3-2.7-0.4-3.6-0.3c0.1-0.1,0.2-0.1,0.3-0.2
				c-0.5-9.7-7.1-12.5-9.4-13c-1.3-0.3-5.8,3.4-4.1,3.8c8.6,2.2,7.4,7.5,6.8,9.3c-0.9-0.2-2.1,0-3.6,0.9c-2.2-2.6-6.6-1.2-6.6-1.2
				s-1.8-2.4-5.7-1.8c-24.7,2.3-17.3,48.9,8.8,47.8c1.4-0.1,5.7-0.8,5.7-0.8c3.6,1.7,7.3,0.1,7.3,0.1c2.2,1,11.4-0.3,13.6-1.8
				C189,234.2,170.5,185.8,154.2,195.7z"/>
			<path class="st1" d="M129.7,204.7l4.4,10.8c0.1,0.1-0.1,0.3-0.2,0.3l-11.5-1.3c-0.2,0-0.2-0.2-0.1-0.3l7.2-9.6
				C129.5,204.5,129.7,204.5,129.7,204.7z"/>
			<path class="st1" d="M147.4,204.6l-3.4,10.3c0,0.1,0,0.2,0.1,0.2l9.9-0.6c0.1,0,0.2-0.1,0.1-0.2l-6.6-9.7
				C147.6,204.5,147.5,204.5,147.4,204.6z"/>
		</g>
		<g>
			<path class="st23" d="M120.2,219.5c0-0.1,0-0.2,0.1-0.2c3-0.3,37.8-3.2,39.1-2.1c1.3,1.1-7,12.1-7.7,13.1c0,0-0.1,0.1-0.1,0.1
				h-1.4c-0.1,0-0.1,0-0.1-0.1l-2.4-5.5c0-0.1-0.1-0.1-0.2-0.1l-4.1,0.6c-0.1,0-0.1,0.1-0.1,0.2l0.4,6.7c0,0.1-0.1,0.2-0.2,0.2h-5
				c-0.1,0-0.1-0.1-0.2-0.1l-1.3-6.4c0-0.1-0.1-0.1-0.2-0.1l-4,0c-0.1,0-0.2,0.1-0.2,0.2v5.5c0,0.1-0.1,0.2-0.2,0.1
				C131,230.8,122.6,226.6,120.2,219.5z"/>
			<path class="st23" d="M155.7,194.5c-5.2-0.8-7.8,1.7-7.8,1.7c-1.5-0.3-2.7-0.4-3.6-0.3c0.1-0.1,0.2-0.1,0.3-0.2
				c-0.5-9.7-7.1-12.5-9.4-13c-1.3-0.3-5.8,3.4-4.1,3.8c8.6,2.2,7.4,7.5,6.8,9.3c-0.9-0.2-2.1,0-3.6,0.9c-2.2-2.6-6.6-1.2-6.6-1.2
				s-1.8-2.4-5.7-1.8c-24.7,2.3-17.3,48.9,8.8,47.8c1.4-0.1,5.7-0.8,5.7-0.8c3.6,1.7,7.3,0.1,7.3,0.1c2.2,1,11.4-0.3,13.6-1.8
				C190.5,233.1,172,184.6,155.7,194.5z"/>
			<path class="st23" d="M131.2,203.5l4.4,10.8c0.1,0.1-0.1,0.3-0.2,0.3l-11.5-1.3c-0.2,0-0.2-0.2-0.1-0.3l7.2-9.6
				C130.9,203.3,131.1,203.4,131.2,203.5z"/>
			<path class="st23" d="M148.9,203.4l-3.4,10.3c0,0.1,0,0.2,0.1,0.2l9.9-0.6c0.1,0,0.2-0.1,0.1-0.2l-6.6-9.7
				C149.1,203.3,148.9,203.3,148.9,203.4z"/>
		</g>
	</g>
	<g>
		<path class="st2" d="M95.9,189.8c1.3-0.9,1.9-2.4,2-4c2.1-1.3,10.3,0.7,21.8-1.4c0.2,0,0.7-1.7,0-1.7c-0.7,0-7.5,0.3-7,0
			s6.8-1.1,7.1-1.3c0.4-0.2,0.4-1.9,0.4-1.9c0-0.2-0.2-0.5-0.4-0.4c-1.8,0.4-7.8,1.7-7.3,1.2c0.7-0.6,6.3-2.8,7.1-3.1
			c0.3-0.1,0.1-1.3-0.5-1.6c-0.5-0.3-5.9,1.1-5.9,1.1s6.1-2.1,6.2-2.2c0.1-0.1-0.5-2-0.6-1.9c-5.6,3.4-19.2,7.1-21.4,7.7
			c-0.5-2.4-1.5-5-4-5.1c-15.3-0.9-73.6,17.2-71.9,22.5C23.1,202.6,86.5,196.1,95.9,189.8z"/>
		<g class="st12">
			<path class="st13" d="M119.9,179.1c-1.7,0.4-7,1.5-7.3,1.2l-91,16.9c-0.1,0.2-0.1,0.3,0,0.4c1.6,5,65-1.5,74.4-7.8
				c1.3-0.9,1.9-2.4,2-4c2.1-1.3,10.3,0.7,21.8-1.4c0.2,0,0.7-1.7,0-1.7c-0.7,0-7.5,0.3-7,0c0.5-0.3,6.8-1.1,7.1-1.3
				s0.4-1.9,0.4-1.9C120.3,179.2,120.1,179,119.9,179.1z"/>
		</g>
		<path class="st23" d="M95.4,191.2c1.3-0.9,1.9-2.4,2-4c2.1-1.3,10.3,0.7,21.8-1.4c0.2,0,0.7-1.7,0-1.7c-0.7,0-7.5,0.3-7,0
			c0.5-0.3,6.8-1.1,7.1-1.3c0.4-0.2,0.4-1.9,0.4-1.9c0-0.2-0.2-0.5-0.4-0.4c-1.8,0.4-7.8,1.7-7.3,1.2c0.7-0.6,6.3-2.8,7.1-3.1
			c0.3-0.1,0.1-1.3-0.5-1.6c-0.5-0.3-5.9,1.1-5.9,1.1s6.1-2.1,6.2-2.2c0.1-0.1-0.5-2-0.6-1.9c-5.6,3.4-19.2,7.1-21.4,7.7
			c-0.5-2.4-1.5-5-4-5.1C77.6,175.7,19.3,193.8,21,199C22.6,204,86,197.5,95.4,191.2z"/>
		<line class="st23" x1="90" y1="176.6" x2="90.2" y2="182.1"/>
		<line class="st23" x1="82.9" y1="189.2" x2="83.1" y2="194.7"/>
		<line class="st23" x1="73.4" y1="192.5" x2="73.4" y2="182.8"/>
		<line class="st23" x1="66.3" y1="194.1" x2="65.7" y2="188.2"/>
		<line class="st23" x1="51.3" y1="185.3" x2="51.9" y2="190.9"/>
		<line class="st23" x1="42.5" y1="200.4" x2="41.6" y2="197.3"/>
	</g>
	<g>
		<path class="st2" d="M196.6,221.4c-0.8-1.4-2.3-2-3.9-2.3c-1.2-2.2,1.4-10.2,0.1-21.8c0-0.2-1.7-0.8-1.7-0.1s-0.2,7.5-0.5,6.9
			c-0.3-0.6-0.6-6.8-0.8-7.2c-0.2-0.4-1.9-0.5-1.9-0.5c-0.2-0.1-0.5,0.1-0.4,0.4c0.3,1.8,1.1,7.9,0.7,7.3c-0.5-0.7-2.4-6.5-2.6-7.3
			c-0.1-0.3-1.3-0.1-1.7,0.3c-0.3,0.5,0.7,5.9,0.7,5.9s-1.6-6.2-1.8-6.3c-0.1-0.1-2,0.3-1.9,0.5c3,5.8,5.8,19.6,6.2,21.9
			c-2.4,0.3-5,1.1-5.4,3.7c-1.9,15.2,12.1,74.6,17.4,73.3C204.3,294.8,202.2,231.2,196.6,221.4z"/>
		<g class="st12">
			<path class="st13" d="M187.5,196.7c0.2,1.7,1,7.1,0.7,7.3l10.5,91.9c0.2,0.1,0.3,0.1,0.4,0.1c5.1-1.3,3-64.9-2.7-74.7
				c-0.8-1.4-2.3-2-3.9-2.3c-1.2-2.2,1.4-10.2,0.1-21.8c0-0.2-1.7-0.8-1.7-0.1c0,0.7-0.2,7.5-0.5,6.9c-0.3-0.6-0.6-6.8-0.8-7.2
				s-1.9-0.5-1.9-0.5C187.7,196.2,187.5,196.4,187.5,196.7z"/>
		</g>
		<path class="st23" d="M197.9,222c-0.8-1.4-2.3-2-3.9-2.3c-1.2-2.2,1.4-10.2,0.1-21.8c0-0.2-1.7-0.8-1.7-0.1s-0.2,7.5-0.5,6.9
			c-0.3-0.6-0.6-6.8-0.8-7.2c-0.2-0.4-1.9-0.5-1.9-0.5c-0.2-0.1-0.5,0.1-0.4,0.4c0.3,1.8,1.1,7.9,0.7,7.3c-0.5-0.7-2.4-6.5-2.6-7.3
			c-0.1-0.3-1.3-0.1-1.7,0.3c-0.3,0.5,0.7,5.9,0.7,5.9s-1.6-6.2-1.8-6.3c-0.1-0.1-2,0.3-1.9,0.5c3,5.8,5.8,19.6,6.2,21.9
			c-2.4,0.3-5,1.1-5.4,3.7c-1.9,15.2,12.1,74.6,17.4,73.3C205.6,295.4,203.6,231.8,197.9,222z"/>
		<line class="st23" x1="183" y1="226.3" x2="188.5" y2="226.5"/>
		<line class="st23" x1="195.1" y1="234.2" x2="200.6" y2="234.4"/>
		<line class="st23" x1="197.6" y1="244" x2="188.1" y2="243.2"/>
		<line class="st23" x1="198.8" y1="251.1" x2="192.9" y2="251.3"/>
		<line class="st23" x1="189" y1="265.5" x2="194.6" y2="265.3"/>
		<line class="st23" x1="203.4" y1="275.3" x2="200.2" y2="276"/>
	</g>
	<g>
		<path class="st2" d="M64,53.3c0.5-1.5,0.1-3.1-0.7-4.5c0.9-2.3,8.8-5.4,16.9-13.9c0.2-0.2-0.5-1.8-1-1.4s-5.9,4.6-5.6,4.1
			c0.3-0.6,4.9-4.8,5-5.2s-0.8-1.8-0.8-1.8c-0.1-0.2-0.4-0.3-0.6-0.1c-1.2,1.4-5.4,5.9-5.2,5.2c0.2-0.9,3.5-6,4-6.6
			c0.2-0.3-0.7-1.1-1.3-1.1c-0.6,0-4.1,4.3-4.1,4.3s3.7-5.2,3.7-5.4c0-0.2-1.5-1.3-1.6-1.1c-2.6,6-11.4,16.9-12.9,18.8
			c-1.8-1.6-4.1-3.2-6.3-1.8C40.5,51,3.7,99.7,8.1,102.9C12.3,106,60,63.8,64,53.3z"/>
		<g class="st12">
			<path class="st13" d="M77.2,30.5c-1.2,1.3-4.8,5.3-5.2,5.3L7.9,102.5c0,0.2,0.1,0.3,0.2,0.4C12.3,106,60,63.8,64,53.2
				c0.5-1.5,0.1-3.1-0.7-4.5c0.9-2.3,8.8-5.4,16.9-13.9c0.2-0.2-0.5-1.8-1-1.4c-0.5,0.4-5.9,4.6-5.6,4.1c0.3-0.6,4.9-4.8,5-5.2
				c0.2-0.4-0.8-1.8-0.8-1.8C77.7,30.4,77.4,30.4,77.2,30.5z"/>
		</g>
		<path class="st23" d="M64.4,54.7c0.5-1.5,0.1-3.1-0.7-4.5c0.9-2.3,8.8-5.4,16.9-13.9c0.2-0.2-0.5-1.8-1-1.4
			c-0.5,0.4-5.9,4.6-5.6,4.1c0.3-0.6,4.9-4.8,5-5.2c0.2-0.4-0.8-1.8-0.8-1.8c-0.1-0.2-0.4-0.3-0.6-0.1c-1.2,1.4-5.4,5.9-5.2,5.2
			c0.2-0.9,3.5-6,4-6.6c0.2-0.3-0.7-1.1-1.3-1.1c-0.6,0-4.1,4.3-4.1,4.3s3.7-5.2,3.7-5.4c0-0.2-1.5-1.3-1.6-1.1
			c-2.6,6-11.4,16.9-12.9,18.8c-1.8-1.6-4.1-3.2-6.3-1.8c-13,8.2-49.8,56.9-45.4,60.2C12.7,107.5,60.4,65.3,64.4,54.7z"/>
		<line class="st23" x1="51.5" y1="45.9" x2="54.8" y2="50.3"/>
		<line class="st23" x1="53.1" y1="60.3" x2="56.4" y2="64.7"/>
		<line class="st23" x1="47.2" y1="68.5" x2="41.7" y2="60.7"/>
		<line class="st23" x1="42.4" y1="73.9" x2="38.5" y2="69.6"/>
		<line class="st23" x1="25.1" y1="75.6" x2="28.9" y2="79.8"/>
		<line class="st23" x1="26.8" y1="93" x2="24.2" y2="90.9"/>
	</g>
	<g>
		<path class="st2" d="M223.4,156.7c0.5,1.5,1.8,2.5,3.3,3.1c0.7,2.4-3.5,9.7-4.6,21.3c0,0.2,1.5,1.1,1.6,0.5
			c0.1-0.6,1.8-7.3,1.9-6.7c0.2,0.6-0.8,6.8-0.7,7.2c0.1,0.4,1.7,0.9,1.7,0.9c0.2,0.1,0.5,0,0.5-0.3c0.1-1.9,0.6-8,0.9-7.3
			c0.4,0.8,1,6.8,1,7.7c0,0.3,1.3,0.4,1.7,0c0.4-0.4,0.6-5.9,0.6-5.9s0.3,6.4,0.4,6.5c0.1,0.1,2,0.1,2-0.1
			c-1.7-6.3-1.5-20.4-1.5-22.7c2.4,0.2,5.2-0.1,6-2.5c5.1-14.5,3.8-75.5-1.7-75.3C231.2,83.3,219.9,145.9,223.4,156.7z"/>
		<g class="st12">
			<path class="st13" d="M227.1,182.7c0.1-1.7,0.5-7.1,0.8-7.3l9-92.1c-0.1-0.1-0.3-0.2-0.4-0.2c-5.2,0.2-16.5,62.9-13.1,73.6
				c0.5,1.5,1.8,2.5,3.3,3.1c0.7,2.4-3.5,9.7-4.6,21.3c0,0.2,1.5,1.1,1.6,0.5c0.1-0.6,1.8-7.3,1.9-6.7c0.2,0.6-0.8,6.8-0.7,7.2
				c0.1,0.4,1.7,0.9,1.7,0.9C226.8,183.1,227.1,183,227.1,182.7z"/>
		</g>
		<path class="st23" d="M222.2,155.8c0.5,1.5,1.8,2.5,3.3,3.1c0.7,2.4-3.5,9.7-4.6,21.3c0,0.2,1.5,1.1,1.6,0.5
			c0.1-0.6,1.8-7.3,1.9-6.7c0.2,0.6-0.8,6.8-0.7,7.2c0.1,0.4,1.7,0.9,1.7,0.9c0.2,0.1,0.5,0,0.5-0.3c0.1-1.9,0.6-8,0.9-7.3
			c0.4,0.8,1,6.8,1,7.7c0,0.3,1.3,0.4,1.7,0c0.4-0.4,0.6-5.9,0.6-5.9s0.3,6.4,0.4,6.5c0.1,0.1,2,0.1,2-0.1
			c-1.7-6.3-1.5-20.4-1.5-22.7c2.4,0.2,5.2-0.1,6-2.5c5.1-14.5,3.8-75.5-1.7-75.3C230,82.4,218.7,145.1,222.2,155.8z"/>
		<line class="st23" x1="237.7" y1="154.7" x2="232.4" y2="153.4"/>
		<line class="st23" x1="227.5" y1="144.4" x2="222.2" y2="143.1"/>
		<line class="st23" x1="227.1" y1="134.4" x2="236.3" y2="137.1"/>
		<line class="st23" x1="227.5" y1="127.1" x2="233.3" y2="128.1"/>
		<line class="st23" x1="240" y1="115.1" x2="234.5" y2="114.1"/>
		<line class="st23" x1="228" y1="102.5" x2="231.2" y2="102.5"/>
	</g>
</g>
<g id="Isolation_Mode">
</g>
</svg>
